<svg width="24" height="20" viewBox="0 0 24 20" fill="none" xmlns="http://www.w3.org/2000/svg">
<g clip-path="url(#clip0)">
<path d="M6.68567 6.51286L4.09033 8.96504L11.2253 15.7389L24.0002 3.62591L21.4049 1.16504L11.2253 10.8172L6.68567 6.51286Z" fill="white"/>
<path d="M18.2608 17.3913C18.2608 17.6219 18.1692 17.8431 18.0062 18.0062C17.8431 18.1693 17.6219 18.2609 17.3913 18.2609H2.60869C2.37807 18.2609 2.15689 18.1693 1.99382 18.0062C1.83074 17.8431 1.73913 17.6219 1.73913 17.3913V2.6087C1.73913 2.37807 1.83074 2.1569 1.99382 1.99382C2.15689 1.83074 2.37807 1.73913 2.60869 1.73913H17.313L18.687 0.356522C18.2935 0.126574 17.8469 0.00365521 17.3913 0H2.60869C1.91683 0 1.25329 0.274844 0.764068 0.764069C0.274843 1.25329 0 1.91683 0 2.6087V17.3913C0 18.0832 0.274843 18.7467 0.764068 19.2359C1.25329 19.7252 1.91683 20 2.60869 20H17.3913C18.0831 20 18.7467 19.7252 19.2359 19.2359C19.7251 18.7467 20 18.0832 20 17.3913V8.84348L18.2608 10.5826V17.3913Z" fill="white"/>
</g>
<defs>
<clipPath id="clip0">
<rect width="24" height="20" fill="white"/>
</clipPath>
</defs>
</svg>
