<svg width="32" height="32" viewBox="0 0 32 32" fill="white" xmlns="http://www.w3.org/2000/svg">
<path d="M16.6368 14.4948C17.0388 14.4758 17.3558 14.4128 17.5878 14.3068C17.9138 14.1618 18.1278 13.9768 18.2288 13.7478C18.3298 13.5188 18.3788 13.2518 18.3788 12.9508C18.3788 12.7188 18.3208 12.4858 18.2048 12.2538C18.0888 12.0218 17.8828 11.8488 17.5878 11.7368C17.3238 11.6368 16.9958 11.5818 16.6038 11.5718C16.0532 11.5612 15.5025 11.5565 14.9518 11.5578H14.6128V14.5228H15.1778C15.7488 14.5228 16.2348 14.5138 16.6368 14.4948ZM18.1178 17.0838C17.8358 17.0028 17.4458 16.9588 16.9518 16.9518C16.4352 16.9457 15.9185 16.9427 15.4018 16.9428H14.6118V20.4358H14.8758C15.8898 20.4358 16.6158 20.4328 17.0558 20.4268C17.4719 20.4247 17.8836 20.3415 18.2678 20.1818C18.6448 20.0248 18.9008 19.8178 19.0418 19.5568C19.1828 19.2958 19.2558 18.9948 19.2558 18.6568C19.2558 18.2108 19.1678 17.8688 18.9948 17.6268C18.8248 17.3858 18.5308 17.2038 18.1178 17.0838Z"/>
<path d="M16 0C7.164 0 0 7.164 0 16C0 24.837 7.164 32 16 32C24.837 32 32 24.837 32 16C32 7.164 24.837 0 16 0ZM22.602 20.531C22.3371 21.0557 21.952 21.5104 21.478 21.858C20.926 22.273 20.317 22.568 19.655 22.744C18.993 22.92 18.154 23.008 17.136 23.008H11.015V8.987H16.458C17.588 8.987 18.415 9.025 18.938 9.1C19.4818 9.18186 20.0089 9.35068 20.499 9.6C21.032 9.87 21.428 10.232 21.688 10.687C21.948 11.142 22.08 11.662 22.08 12.245C22.08 12.923 21.901 13.523 21.544 14.04C21.186 14.558 20.681 14.96 20.027 15.248V15.323C20.944 15.505 21.669 15.882 22.206 16.453C22.743 17.024 23.013 17.778 23.013 18.714C23.013 19.392 22.875 19.997 22.602 20.531Z"/>
</svg>
