<svg width="32" height="32" viewBox="0 0 32 32" fill="white" xmlns="http://www.w3.org/2000/svg">
<path d="M20.9158 15.9999C20.9158 17.3096 20.3955 18.5658 19.4693 19.4919C18.5432 20.4181 17.2871 20.9384 15.9773 20.9384C14.6675 20.9384 13.4114 20.4181 12.4852 19.4919C11.5591 18.5658 11.0388 17.3096 11.0388 15.9999C11.0388 15.6059 11.0898 15.2269 11.1768 14.8599H10.2798V21.6979H21.6758V14.8599H20.7788C20.8648 15.2269 20.9158 15.6059 20.9158 15.9999Z"/>
<path d="M15.9778 18.6588C17.4438 18.6588 18.6368 17.4658 18.6368 15.9998C18.6368 14.5338 17.4438 13.3408 15.9778 13.3408C14.5118 13.3408 13.3188 14.5338 13.3188 15.9998C13.3188 17.4658 14.5108 18.6588 15.9778 18.6588ZM18.6368 10.3018H21.6758V13.3408H18.6368V10.3018Z"/>
<path d="M16 0C7.164 0 0 7.164 0 16C0 24.837 7.164 32 16 32C24.837 32 32 24.837 32 16C32 7.164 24.837 0 16 0ZM23.955 21.698C23.9534 22.3019 23.7128 22.8807 23.2857 23.3077C22.8587 23.7348 22.2799 23.9754 21.676 23.977H10.279C9.67506 23.9754 9.09631 23.7348 8.66925 23.3077C8.2422 22.8807 8.00158 22.3019 8 21.698V10.302C8.00185 9.69814 8.24255 9.11954 8.66954 8.69254C9.09654 8.26555 9.67514 8.02485 10.279 8.023H21.675C22.2789 8.02485 22.8575 8.26555 23.2845 8.69254C23.7115 9.11954 23.9522 9.69814 23.954 10.302V21.698H23.955Z"/>
</svg>
