<svg width="32" height="32" viewBox="0 0 32 32" fill="white" xmlns="http://www.w3.org/2000/svg">
<path d="M16 0C7.164 0 0 7.164 0 16C0 24.837 7.164 32 16 32C24.837 32 32 24.837 32 16C32 7.164 24.837 0 16 0ZM23.944 12.809C23.693 19.325 20.481 23.641 12.952 23.511H12.466C12.019 23.511 7.923 23.068 7.122 21.688C9.601 21.878 11.369 21.282 12.242 20.552C11.194 20.263 9.319 20.091 8.991 17.704C9.375 17.808 9.609 17.925 10.29 17.817C8.983 16.993 7.532 16.298 7.611 14.174C7.922 14.491 8.775 14.692 9.071 14.631C8.303 14.398 6.922 11.387 8.097 9.85C10.081 11.64 12.172 13.332 15.901 13.493C16.128 11.279 17.141 9.794 19.069 9.168C20.909 8.689 22.324 9.428 22.97 10.306C23.707 10.082 24.423 9.84 25.163 9.621C25.159 10.454 24.594 11.084 24.228 11.33C24.975 11.495 25.651 10.855 25.651 10.855C25.467 11.818 24.557 12.58 23.944 12.809Z"/>
</svg>
