<svg width="24" height="20" viewBox="0 0 24 20" fill="none" xmlns="http://www.w3.org/2000/svg"><g clip-path="url(#clip0)" fill="#fff"><path d="M6.686 6.513L4.09 8.965l7.135 6.774L24 3.626l-2.595-2.461-10.18 9.652-4.54-4.304z"/><path d="M18.26 17.391a.87.87 0 01-.869.87H2.61a.87.87 0 01-.87-.87V2.61a.87.87 0 01.87-.87h14.704L18.687.357A2.61 2.61 0 0017.391 0H2.61A2.609 2.609 0 000 2.609V17.39A2.609 2.609 0 002.609 20H17.39A2.608 2.608 0 0020 17.391V8.843l-1.74 1.74v6.808z"/></g><defs><clipPath id="clip0"><path fill="#fff" d="M0 0h24v20H0z"/></clipPath></defs></svg>